<svg xmlns="http://www.w3.org/2000/svg" xmlns:xlink="http://www.w3.org/1999/xlink" width="200" zoomAndPan="magnify" viewBox="0 0 150 74.999997" height="100" preserveAspectRatio="xMidYMid meet" version="1.0"><defs><g/><clipPath id="c30d7b72ca"><path d="M 18.734375 31 L 48 31 L 48 45 L 18.734375 45 Z M 18.734375 31 " clip-rule="nonzero"/></clipPath><clipPath id="270b64e50f"><path d="M 19 7.5 L 77 7.5 L 77 40 L 19 40 Z M 19 7.5 " clip-rule="nonzero"/></clipPath><clipPath id="8b7891d982"><path d="M 103 26 L 139.484375 26 L 139.484375 43 L 103 43 Z M 103 26 " clip-rule="nonzero"/></clipPath></defs><g clip-path="url(#c30d7b72ca)"><path fill="#ce010e" d="M 36.953125 31.90625 C 41.09375 31.90625 44.90625 32.875 47.964844 34.503906 C 46.324219 34.164062 44.59375 33.980469 42.796875 33.980469 C 33.574219 33.980469 25.960938 38.78125 24.773438 45.007812 L 18.785156 45.007812 C 18.78125 44.882812 18.761719 44.757812 18.761719 44.628906 C 18.761719 37.601562 26.90625 31.90625 36.953125 31.90625 " fill-opacity="1" fill-rule="nonzero"/></g><g clip-path="url(#270b64e50f)"><path fill="#ce010e" d="M 64.382812 39.917969 C 64.382812 39.917969 44.777344 21.632812 19.707031 35.394531 C 19.707031 35.394531 27.246094 9.945312 63.0625 7.496094 C 63.0625 7.496094 48.589844 10.640625 39.6875 23.894531 C 39.6875 23.894531 62.496094 16.917969 76.632812 31.90625 C 76.632812 31.90625 65.796875 26.910156 56.179688 29.457031 C 56.179688 29.457031 61.363281 34.074219 64.382812 39.917969 " fill-opacity="1" fill-rule="nonzero"/></g><path fill="#ce010e" d="M 52.695312 20.03125 C 52.695312 20.03125 69.753906 15.601562 77.859375 17.578125 C 85.964844 19.558594 88.792969 27.101562 93.882812 27.476562 C 98.972656 27.851562 107.832031 15.414062 126.585938 19.371094 C 126.585938 19.371094 114.617188 18.523438 103.402344 29.925781 L 92.65625 30.371094 C 89.917969 30.480469 87.410156 29.003906 86.027344 26.636719 C 83.382812 22.109375 75.597656 15.832031 52.695312 20.03125 " fill-opacity="1" fill-rule="nonzero"/><g clip-path="url(#8b7891d982)"><path fill="#ce010e" d="M 104.933594 31.800781 C 106.5625 28.566406 109.902344 26.34375 113.769531 26.34375 L 139.40625 26.34375 L 124.421875 28.042969 L 133.5625 29.269531 L 123.664062 29.925781 L 139.40625 31.71875 L 113.769531 31.71875 C 113.769531 31.71875 110.0625 32.050781 107.683594 35.515625 C 106.652344 37.019531 105.875 39.121094 105.757812 42.039062 C 104.578125 40.40625 103.871094 38.410156 103.871094 36.242188 C 103.871094 35.917969 103.890625 35.597656 103.921875 35.28125 C 104.042969 34.035156 104.398438 32.867188 104.933594 31.800781 " fill-opacity="1" fill-rule="nonzero"/></g><g fill="#ffffff" fill-opacity="1"><g transform="translate(5.855809, 63.106038)"><g><path d="M 6.125 0.125 C 5.0625 0.125 4.144531 -0.101562 3.375 -0.5625 C 2.601562 -1.019531 2.007812 -1.679688 1.59375 -2.546875 C 1.175781 -3.410156 0.96875 -4.425781 0.96875 -5.59375 C 0.96875 -6.757812 1.175781 -7.769531 1.59375 -8.625 C 2.007812 -9.488281 2.601562 -10.148438 3.375 -10.609375 C 4.144531 -11.078125 5.0625 -11.3125 6.125 -11.3125 C 6.832031 -11.3125 7.5 -11.195312 8.125 -10.96875 C 8.757812 -10.738281 9.304688 -10.410156 9.765625 -9.984375 C 9.929688 -9.828125 10.015625 -9.644531 10.015625 -9.4375 C 10.015625 -9.289062 9.972656 -9.160156 9.890625 -9.046875 C 9.804688 -8.929688 9.707031 -8.875 9.59375 -8.875 C 9.46875 -8.875 9.316406 -8.9375 9.140625 -9.0625 C 8.597656 -9.476562 8.109375 -9.769531 7.671875 -9.9375 C 7.234375 -10.113281 6.726562 -10.203125 6.15625 -10.203125 C 4.925781 -10.203125 3.976562 -9.800781 3.3125 -9 C 2.65625 -8.195312 2.328125 -7.0625 2.328125 -5.59375 C 2.328125 -4.113281 2.65625 -2.972656 3.3125 -2.171875 C 3.976562 -1.378906 4.925781 -0.984375 6.15625 -0.984375 C 6.71875 -0.984375 7.21875 -1.066406 7.65625 -1.234375 C 8.101562 -1.398438 8.597656 -1.695312 9.140625 -2.125 C 9.316406 -2.238281 9.46875 -2.296875 9.59375 -2.296875 C 9.707031 -2.296875 9.804688 -2.242188 9.890625 -2.140625 C 9.972656 -2.035156 10.015625 -1.90625 10.015625 -1.75 C 10.015625 -1.53125 9.929688 -1.34375 9.765625 -1.1875 C 9.304688 -0.769531 8.757812 -0.445312 8.125 -0.21875 C 7.5 0.0078125 6.832031 0.125 6.125 0.125 Z M 6.125 0.125 "/></g></g></g><g fill="#ffffff" fill-opacity="1"><g transform="translate(16.595641, 63.106038)"><g><path d="M 6.0625 0.125 C 5.019531 0.125 4.113281 -0.101562 3.34375 -0.5625 C 2.582031 -1.03125 1.992188 -1.691406 1.578125 -2.546875 C 1.171875 -3.410156 0.96875 -4.421875 0.96875 -5.578125 C 0.96875 -6.753906 1.171875 -7.769531 1.578125 -8.625 C 1.984375 -9.488281 2.566406 -10.148438 3.328125 -10.609375 C 4.097656 -11.078125 5.007812 -11.3125 6.0625 -11.3125 C 7.101562 -11.3125 8.003906 -11.078125 8.765625 -10.609375 C 9.535156 -10.148438 10.125 -9.488281 10.53125 -8.625 C 10.945312 -7.769531 11.15625 -6.757812 11.15625 -5.59375 C 11.15625 -4.4375 10.945312 -3.425781 10.53125 -2.5625 C 10.113281 -1.695312 9.519531 -1.03125 8.75 -0.5625 C 7.988281 -0.101562 7.09375 0.125 6.0625 0.125 Z M 6.0625 -0.984375 C 7.238281 -0.984375 8.15625 -1.378906 8.8125 -2.171875 C 9.476562 -2.972656 9.8125 -4.113281 9.8125 -5.59375 C 9.8125 -7.070312 9.484375 -8.207031 8.828125 -9 C 8.171875 -9.800781 7.25 -10.203125 6.0625 -10.203125 C 4.875 -10.203125 3.945312 -9.800781 3.28125 -9 C 2.625 -8.195312 2.296875 -7.0625 2.296875 -5.59375 C 2.296875 -4.125 2.625 -2.988281 3.28125 -2.1875 C 3.945312 -1.382812 4.875 -0.984375 6.0625 -0.984375 Z M 6.0625 -0.984375 "/></g></g></g><g fill="#ffffff" fill-opacity="1"><g transform="translate(28.715628, 63.106038)"><g><path d="M 11.3125 -11.265625 C 11.507812 -11.265625 11.660156 -11.203125 11.765625 -11.078125 C 11.878906 -10.953125 11.9375 -10.789062 11.9375 -10.59375 L 11.9375 -0.5625 C 11.9375 -0.363281 11.882812 -0.207031 11.78125 -0.09375 C 11.675781 0.0195312 11.53125 0.078125 11.34375 0.078125 C 11.144531 0.078125 11 0.0195312 10.90625 -0.09375 C 10.8125 -0.207031 10.765625 -0.363281 10.765625 -0.5625 L 10.765625 -8.65625 L 7.328125 -2.0625 C 7.179688 -1.757812 6.960938 -1.609375 6.671875 -1.609375 C 6.398438 -1.609375 6.1875 -1.757812 6.03125 -2.0625 L 2.5625 -8.578125 L 2.5625 -0.5625 C 2.5625 -0.363281 2.507812 -0.207031 2.40625 -0.09375 C 2.3125 0.0195312 2.171875 0.078125 1.984375 0.078125 C 1.796875 0.078125 1.644531 0.0195312 1.53125 -0.09375 C 1.425781 -0.207031 1.375 -0.363281 1.375 -0.5625 L 1.375 -10.59375 C 1.375 -10.789062 1.429688 -10.953125 1.546875 -11.078125 C 1.671875 -11.203125 1.832031 -11.265625 2.03125 -11.265625 C 2.289062 -11.265625 2.503906 -11.109375 2.671875 -10.796875 L 6.6875 -3.078125 L 10.671875 -10.796875 C 10.753906 -10.960938 10.84375 -11.082031 10.9375 -11.15625 C 11.039062 -11.226562 11.164062 -11.265625 11.3125 -11.265625 Z M 11.3125 -11.265625 "/></g></g></g><g fill="#ffffff" fill-opacity="1"><g transform="translate(42.057132, 63.106038)"><g><path d="M 2.03125 0.078125 C 1.832031 0.078125 1.671875 0.0195312 1.546875 -0.09375 C 1.429688 -0.21875 1.375 -0.382812 1.375 -0.59375 L 1.375 -10.546875 C 1.375 -10.734375 1.4375 -10.882812 1.5625 -11 C 1.6875 -11.125 1.847656 -11.1875 2.046875 -11.1875 L 5.796875 -11.1875 C 6.972656 -11.1875 7.882812 -10.898438 8.53125 -10.328125 C 9.1875 -9.753906 9.515625 -8.941406 9.515625 -7.890625 C 9.515625 -6.847656 9.1875 -6.035156 8.53125 -5.453125 C 7.875 -4.867188 6.960938 -4.578125 5.796875 -4.578125 L 2.6875 -4.578125 L 2.6875 -0.59375 C 2.6875 -0.382812 2.625 -0.21875 2.5 -0.09375 C 2.382812 0.0195312 2.226562 0.078125 2.03125 0.078125 Z M 5.671875 -5.65625 C 7.378906 -5.65625 8.234375 -6.398438 8.234375 -7.890625 C 8.234375 -9.367188 7.378906 -10.109375 5.671875 -10.109375 L 2.6875 -10.109375 L 2.6875 -5.65625 Z M 5.671875 -5.65625 "/></g></g></g><g fill="#ffffff" fill-opacity="1"><g transform="translate(52.289319, 63.106038)"><g><path d="M 11 -0.75 C 11.039062 -0.664062 11.0625 -0.570312 11.0625 -0.46875 C 11.0625 -0.3125 11 -0.179688 10.875 -0.078125 C 10.757812 0.0234375 10.617188 0.078125 10.453125 0.078125 C 10.191406 0.078125 10.003906 -0.046875 9.890625 -0.296875 L 8.765625 -2.875 L 2.796875 -2.875 L 1.65625 -0.296875 C 1.539062 -0.046875 1.351562 0.078125 1.09375 0.078125 C 0.925781 0.078125 0.773438 0.0234375 0.640625 -0.078125 C 0.515625 -0.191406 0.453125 -0.328125 0.453125 -0.484375 C 0.453125 -0.578125 0.472656 -0.664062 0.515625 -0.75 L 5.0625 -10.828125 C 5.125 -10.972656 5.21875 -11.082031 5.34375 -11.15625 C 5.46875 -11.238281 5.601562 -11.28125 5.75 -11.28125 C 5.914062 -11.28125 6.0625 -11.238281 6.1875 -11.15625 C 6.3125 -11.070312 6.40625 -10.960938 6.46875 -10.828125 Z M 3.265625 -3.953125 L 8.296875 -3.953125 L 5.765625 -9.640625 Z M 3.265625 -3.953125 "/></g></g></g><g fill="#ffffff" fill-opacity="1"><g transform="translate(63.822344, 63.106038)"><g><path d="M 9.90625 -0.8125 C 9.976562 -0.695312 10.015625 -0.570312 10.015625 -0.4375 C 10.015625 -0.28125 9.953125 -0.148438 9.828125 -0.046875 C 9.710938 0.046875 9.578125 0.09375 9.421875 0.09375 C 9.179688 0.09375 8.988281 -0.0078125 8.84375 -0.21875 L 6.71875 -3.578125 C 6.445312 -4.015625 6.160156 -4.3125 5.859375 -4.46875 C 5.566406 -4.632812 5.164062 -4.71875 4.65625 -4.71875 L 2.671875 -4.71875 L 2.671875 -0.59375 C 2.671875 -0.382812 2.609375 -0.21875 2.484375 -0.09375 C 2.367188 0.0195312 2.21875 0.078125 2.03125 0.078125 C 1.832031 0.078125 1.671875 0.0195312 1.546875 -0.09375 C 1.429688 -0.21875 1.375 -0.382812 1.375 -0.59375 L 1.375 -10.546875 C 1.375 -10.734375 1.4375 -10.882812 1.5625 -11 C 1.6875 -11.125 1.847656 -11.1875 2.046875 -11.1875 L 5.984375 -11.1875 C 7.191406 -11.1875 8.113281 -10.914062 8.75 -10.375 C 9.394531 -9.832031 9.71875 -9.039062 9.71875 -8 C 9.71875 -7.101562 9.460938 -6.382812 8.953125 -5.84375 C 8.441406 -5.3125 7.707031 -4.988281 6.75 -4.875 C 7.019531 -4.78125 7.257812 -4.640625 7.46875 -4.453125 C 7.675781 -4.265625 7.890625 -4 8.109375 -3.65625 Z M 5.875 -5.796875 C 6.738281 -5.796875 7.382812 -5.976562 7.8125 -6.34375 C 8.238281 -6.707031 8.453125 -7.253906 8.453125 -7.984375 C 8.453125 -8.703125 8.238281 -9.234375 7.8125 -9.578125 C 7.394531 -9.929688 6.75 -10.109375 5.875 -10.109375 L 2.671875 -10.109375 L 2.671875 -5.796875 Z M 5.875 -5.796875 "/></g></g></g><g fill="#ffffff" fill-opacity="1"><g transform="translate(74.704947, 63.106038)"><g><path d="M 11 -0.75 C 11.039062 -0.664062 11.0625 -0.570312 11.0625 -0.46875 C 11.0625 -0.3125 11 -0.179688 10.875 -0.078125 C 10.757812 0.0234375 10.617188 0.078125 10.453125 0.078125 C 10.191406 0.078125 10.003906 -0.046875 9.890625 -0.296875 L 8.765625 -2.875 L 2.796875 -2.875 L 1.65625 -0.296875 C 1.539062 -0.046875 1.351562 0.078125 1.09375 0.078125 C 0.925781 0.078125 0.773438 0.0234375 0.640625 -0.078125 C 0.515625 -0.191406 0.453125 -0.328125 0.453125 -0.484375 C 0.453125 -0.578125 0.472656 -0.664062 0.515625 -0.75 L 5.0625 -10.828125 C 5.125 -10.972656 5.21875 -11.082031 5.34375 -11.15625 C 5.46875 -11.238281 5.601562 -11.28125 5.75 -11.28125 C 5.914062 -11.28125 6.0625 -11.238281 6.1875 -11.15625 C 6.3125 -11.070312 6.40625 -10.960938 6.46875 -10.828125 Z M 3.265625 -3.953125 L 8.296875 -3.953125 L 5.765625 -9.640625 Z M 3.265625 -3.953125 "/></g></g></g><g fill="#ce010e" fill-opacity="1"><g transform="translate(86.238592, 63.106038)"><g><path d="M 11.140625 -11.265625 C 11.429688 -11.265625 11.664062 -11.171875 11.84375 -10.984375 C 12.019531 -10.796875 12.109375 -10.550781 12.109375 -10.25 L 12.109375 -0.859375 C 12.109375 -0.554688 12.023438 -0.320312 11.859375 -0.15625 C 11.691406 0.0078125 11.472656 0.09375 11.203125 0.09375 C 10.921875 0.09375 10.703125 0.0078125 10.546875 -0.15625 C 10.390625 -0.320312 10.3125 -0.554688 10.3125 -0.859375 L 10.3125 -7.390625 L 7.609375 -2.28125 C 7.484375 -2.050781 7.347656 -1.878906 7.203125 -1.765625 C 7.054688 -1.660156 6.878906 -1.609375 6.671875 -1.609375 C 6.472656 -1.609375 6.300781 -1.660156 6.15625 -1.765625 C 6.007812 -1.867188 5.867188 -2.039062 5.734375 -2.28125 L 3.03125 -7.3125 L 3.03125 -0.859375 C 3.03125 -0.566406 2.945312 -0.332031 2.78125 -0.15625 C 2.613281 0.0078125 2.394531 0.09375 2.125 0.09375 C 1.851562 0.09375 1.632812 0.0078125 1.46875 -0.15625 C 1.3125 -0.320312 1.234375 -0.554688 1.234375 -0.859375 L 1.234375 -10.25 C 1.234375 -10.550781 1.320312 -10.796875 1.5 -10.984375 C 1.675781 -11.171875 1.910156 -11.265625 2.203125 -11.265625 C 2.617188 -11.265625 2.941406 -11.035156 3.171875 -10.578125 L 6.6875 -3.875 L 10.203125 -10.578125 C 10.429688 -11.035156 10.742188 -11.265625 11.140625 -11.265625 Z M 11.140625 -11.265625 "/></g></g></g><g fill="#ce010e" fill-opacity="1"><g transform="translate(99.580096, 63.106038)"><g><path d="M 6.1875 0.140625 C 5.09375 0.140625 4.144531 -0.0859375 3.34375 -0.546875 C 2.550781 -1.015625 1.9375 -1.679688 1.5 -2.546875 C 1.070312 -3.421875 0.859375 -4.4375 0.859375 -5.59375 C 0.859375 -6.757812 1.070312 -7.769531 1.5 -8.625 C 1.925781 -9.488281 2.539062 -10.15625 3.34375 -10.625 C 4.144531 -11.09375 5.09375 -11.328125 6.1875 -11.328125 C 7.269531 -11.328125 8.210938 -11.09375 9.015625 -10.625 C 9.816406 -10.15625 10.429688 -9.488281 10.859375 -8.625 C 11.285156 -7.769531 11.5 -6.757812 11.5 -5.59375 C 11.5 -4.4375 11.28125 -3.421875 10.84375 -2.546875 C 10.414062 -1.679688 9.800781 -1.015625 9 -0.546875 C 8.195312 -0.0859375 7.257812 0.140625 6.1875 0.140625 Z M 6.1875 -1.484375 C 7.207031 -1.484375 8.003906 -1.835938 8.578125 -2.546875 C 9.160156 -3.253906 9.453125 -4.269531 9.453125 -5.59375 C 9.453125 -6.914062 9.160156 -7.925781 8.578125 -8.625 C 8.003906 -9.332031 7.207031 -9.6875 6.1875 -9.6875 C 5.144531 -9.6875 4.335938 -9.332031 3.765625 -8.625 C 3.191406 -7.925781 2.90625 -6.914062 2.90625 -5.59375 C 2.90625 -4.269531 3.191406 -3.253906 3.765625 -2.546875 C 4.335938 -1.835938 5.144531 -1.484375 6.1875 -1.484375 Z M 6.1875 -1.484375 "/></g></g></g><g fill="#ce010e" fill-opacity="1"><g transform="translate(111.93804, 63.106038)"><g><path d="M 4.875 0.078125 C 4.550781 0.078125 4.296875 -0.0078125 4.109375 -0.1875 C 3.929688 -0.375 3.84375 -0.625 3.84375 -0.9375 L 3.84375 -9.5 L 0.953125 -9.5 C 0.316406 -9.5 0 -9.78125 0 -10.34375 C 0 -10.90625 0.316406 -11.1875 0.953125 -11.1875 L 8.765625 -11.1875 C 9.398438 -11.1875 9.71875 -10.90625 9.71875 -10.34375 C 9.71875 -9.78125 9.398438 -9.5 8.765625 -9.5 L 5.890625 -9.5 L 5.890625 -0.9375 C 5.890625 -0.625 5.796875 -0.375 5.609375 -0.1875 C 5.421875 -0.0078125 5.175781 0.078125 4.875 0.078125 Z M 4.875 0.078125 "/></g></g></g><g fill="#ce010e" fill-opacity="1"><g transform="translate(121.662585, 63.106038)"><g><path d="M 6.1875 0.140625 C 5.09375 0.140625 4.144531 -0.0859375 3.34375 -0.546875 C 2.550781 -1.015625 1.9375 -1.679688 1.5 -2.546875 C 1.070312 -3.421875 0.859375 -4.4375 0.859375 -5.59375 C 0.859375 -6.757812 1.070312 -7.769531 1.5 -8.625 C 1.925781 -9.488281 2.539062 -10.15625 3.34375 -10.625 C 4.144531 -11.09375 5.09375 -11.328125 6.1875 -11.328125 C 7.269531 -11.328125 8.210938 -11.09375 9.015625 -10.625 C 9.816406 -10.15625 10.429688 -9.488281 10.859375 -8.625 C 11.285156 -7.769531 11.5 -6.757812 11.5 -5.59375 C 11.5 -4.4375 11.28125 -3.421875 10.84375 -2.546875 C 10.414062 -1.679688 9.800781 -1.015625 9 -0.546875 C 8.195312 -0.0859375 7.257812 0.140625 6.1875 0.140625 Z M 6.1875 -1.484375 C 7.207031 -1.484375 8.003906 -1.835938 8.578125 -2.546875 C 9.160156 -3.253906 9.453125 -4.269531 9.453125 -5.59375 C 9.453125 -6.914062 9.160156 -7.925781 8.578125 -8.625 C 8.003906 -9.332031 7.207031 -9.6875 6.1875 -9.6875 C 5.144531 -9.6875 4.335938 -9.332031 3.765625 -8.625 C 3.191406 -7.925781 2.90625 -6.914062 2.90625 -5.59375 C 2.90625 -4.269531 3.191406 -3.253906 3.765625 -2.546875 C 4.335938 -1.835938 5.144531 -1.484375 6.1875 -1.484375 Z M 6.1875 -1.484375 "/></g></g></g><g fill="#ce010e" fill-opacity="1"><g transform="translate(134.020529, 63.106038)"><g><path d="M 5.078125 0.140625 C 4.265625 0.140625 3.492188 0.0351562 2.765625 -0.171875 C 2.046875 -0.390625 1.457031 -0.6875 1 -1.0625 C 0.757812 -1.238281 0.640625 -1.492188 0.640625 -1.828125 C 0.640625 -2.046875 0.703125 -2.238281 0.828125 -2.40625 C 0.960938 -2.570312 1.117188 -2.65625 1.296875 -2.65625 C 1.484375 -2.65625 1.703125 -2.578125 1.953125 -2.421875 C 2.398438 -2.097656 2.875 -1.859375 3.375 -1.703125 C 3.875 -1.554688 4.425781 -1.484375 5.03125 -1.484375 C 5.800781 -1.484375 6.390625 -1.617188 6.796875 -1.890625 C 7.210938 -2.160156 7.421875 -2.554688 7.421875 -3.078125 C 7.421875 -3.472656 7.226562 -3.78125 6.84375 -4 C 6.457031 -4.21875 5.816406 -4.425781 4.921875 -4.625 C 3.984375 -4.832031 3.222656 -5.066406 2.640625 -5.328125 C 2.066406 -5.585938 1.628906 -5.925781 1.328125 -6.34375 C 1.035156 -6.757812 0.890625 -7.28125 0.890625 -7.90625 C 0.890625 -8.5625 1.070312 -9.148438 1.4375 -9.671875 C 1.8125 -10.191406 2.328125 -10.597656 2.984375 -10.890625 C 3.648438 -11.179688 4.394531 -11.328125 5.21875 -11.328125 C 6.726562 -11.328125 7.957031 -10.925781 8.90625 -10.125 C 9.050781 -10 9.148438 -9.878906 9.203125 -9.765625 C 9.265625 -9.660156 9.296875 -9.523438 9.296875 -9.359375 C 9.296875 -9.140625 9.226562 -8.945312 9.09375 -8.78125 C 8.957031 -8.613281 8.800781 -8.53125 8.625 -8.53125 C 8.519531 -8.53125 8.421875 -8.546875 8.328125 -8.578125 C 8.242188 -8.609375 8.128906 -8.664062 7.984375 -8.75 C 7.546875 -9.070312 7.125 -9.304688 6.71875 -9.453125 C 6.3125 -9.609375 5.8125 -9.6875 5.21875 -9.6875 C 4.5 -9.6875 3.929688 -9.539062 3.515625 -9.25 C 3.097656 -8.957031 2.890625 -8.554688 2.890625 -8.046875 C 2.890625 -7.609375 3.070312 -7.269531 3.4375 -7.03125 C 3.8125 -6.800781 4.441406 -6.585938 5.328125 -6.390625 C 6.265625 -6.179688 7.023438 -5.945312 7.609375 -5.6875 C 8.203125 -5.425781 8.65625 -5.09375 8.96875 -4.6875 C 9.28125 -4.289062 9.4375 -3.789062 9.4375 -3.1875 C 9.4375 -2.53125 9.253906 -1.953125 8.890625 -1.453125 C 8.523438 -0.953125 8.007812 -0.5625 7.34375 -0.28125 C 6.6875 0 5.929688 0.140625 5.078125 0.140625 Z M 5.078125 0.140625 "/></g></g></g></svg>